<svg width="519" height="519" viewBox="100 100 319 319" xmlns="http://www.w3.org/2000/svg" style="background-color: #fff6e9;">
            <defs>
                <filter id="drop-shadow" x="-50%" y="-50%" width="200%" height="200%">
                    <feGaussianBlur in="SourceAlpha" stdDeviation="0" result="blur"/>
                    <feOffset in="blur" dx="0" dy="0" result="offsetBlur"/>
                    <feFlood flood-color="rgba(0,0,0,0.4)" result="flood"/>
                    <feComposite in="flood" in2="offsetBlur" operator="in"/>
                    <feMerge>
                        <feMergeNode/>
                        <feMergeNode in="SourceGraphic"/>
                    </feMerge>
                </filter>
            </defs>
        <g transform="translate(419, 221)"><g filter="url(#drop-shadow)"><path d=" M -55 132 L 0 132 L 0 132 L 0 143 L 0 143 L -55 143 L -55 143 L -55 132 Z M -55 77 L 0 77 L 0 77 L 0 132 L 0 132 L -55 132 L -55 132 L -55 77 Z M -55 143 L 0 143 L 0 143 L 0 198 L 0 198 L -55 198 L -55 198 L -55 143 Z M -55 66 L 0 66 L 0 66 L 0 77 L 0 77 L -55 77 L -55 77 L -55 66 Z M -66 143 L -55 143 L -55 143 L -55 198 L -55 198 L -66 198 L -66 198 L -66 143 Z M -55 11 L 0 11 L 0 11 L 0 66 L 0 66 L -55 66 L -55 66 L -55 11 Z M -121 143 L -66 143 L -66 143 L -66 198 L -66 198 L -121 198 L -121 198 L -121 143 Z M -132 143 L -121 143 L -121 143 L -121 198 L -121 198 L -132 198 L -132 198 L -132 143 Z M -121 132 L -66 132 L -66 132 L -66 143 L -66 143 L -121 143 L -121 143 L -121 132 Z M -187 143 L -132 143 L -132 143 L -132 198 L -132 198 L -187 198 L -187 198 L -187 143 Z M -121 77 L -66 77 L -66 77 L -66 132 L -66 132 L -121 132 L -121 132 L -121 77 Z M -198 143 L -187 143 L -187 143 L -187 198 L -187 198 L -198 198 L -198 198 L -198 143 Z M -187 132 L -132 132 L -132 132 L -132 143 L -132 143 L -187 143 L -187 143 L -187 132 Z M -253 143 L -198 143 L -198 143 L -198 198 L -198 198 L -253 198 L -253 198 L -253 143 Z M -187 77 L -132 77 L -132 77 L -132 132 L -132 132 L -187 132 L -187 132 L -187 77 Z M -264 143 L -253 143 L -253 143 L -253 198 L -253 198 L -264 198 L -264 198 L -264 143 Z M -319 143 L -264 143 L -264 143 L -264 198 L -264 198 L -319 198 L -319 198 L -319 143 Z M -319 132 L -264 132 L -264 132 L -264 143 L -264 143 L -319 143 L -319 143 L -319 132 Z M -319 77 L -264 77 L -264 77 L -264 132 L -264 132 L -319 132 L -319 132 L -319 77 Z M -319 66 L -264 66 L -264 66 L -264 77 L -264 77 L -319 77 L -319 77 L -319 66 Z M -319 11 L -264 11 L -264 11 L -264 66 L -264 66 L -319 66 L -319 66 L -319 11 Z M -319 0 L -264 0 L -264 0 L -264 11 L -264 11 L -319 11 L -319 11 L -319 0 Z M -319 -55 L -264 -55 L -264 -55 L -264 0 L -264 0 L -319 0 L -319 0 L -319 -55 Z M -319 -66 L -264 -66 L -264 -66 L -264 -55 L -264 -55 L -319 -55 L -319 -55 L -319 -66 Z M -319 -121 L -264 -121 L -264 -121 L -264 -66 L -264 -66 L -319 -66 L -319 -66 L -319 -121 Z" fill="#f16d30"/><path d=" M -55 -121 L 0 -121 L 0 -121 L 0 -66 L 0 -66 L -55 -66 L -55 -66 L -55 -121 Z M -66 -121 L -55 -121 L -55 -121 L -55 -66 L -55 -66 L -66 -66 L -66 -66 L -66 -121 Z M -55 -66 L 0 -66 L 0 -66 L 0 -55 L 0 -55 L -55 -55 L -55 -55 L -55 -66 Z M -121 -121 L -66 -121 L -66 -121 L -66 -66 L -66 -66 L -121 -66 L -121 -66 L -121 -121 Z M -55 -55 L 0 -55 L 0 -55 L 0 0 L 0 0 L -55 0 L -55 0 L -55 -55 Z M -132 -121 L -121 -121 L -121 -121 L -121 -66 L -121 -66 L -132 -66 L -132 -66 L -132 -121 Z M -66 -55 L -55 -55 L -55 -55 L -55 0 L -55 0 L -66 0 L -66 0 L -66 -55 Z M -187 -121 L -132 -121 L -132 -121 L -132 -66 L -132 -66 L -187 -66 L -187 -66 L -187 -121 Z M -121 -55 L -66 -55 L -66 -55 L -66 0 L -66 0 L -121 0 L -121 0 L -121 -55 Z M -198 -121 L -187 -121 L -187 -121 L -187 -66 L -187 -66 L -198 -66 L -198 -66 L -198 -121 Z M -132 -55 L -121 -55 L -121 -55 L -121 0 L -121 0 L -132 0 L -132 0 L -132 -55 Z M -121 0 L -66 0 L -66 0 L -66 11 L -66 11 L -121 11 L -121 11 L -121 0 Z M -253 -121 L -198 -121 L -198 -121 L -198 -66 L -198 -66 L -253 -66 L -253 -66 L -253 -121 Z M -187 -55 L -132 -55 L -132 -55 L -132 0 L -132 0 L -187 0 L -187 0 L -187 -55 Z M -121 11 L -66 11 L -66 11 L -66 66 L -66 66 L -121 66 L -121 66 L -121 11 Z M -198 -55 L -187 -55 L -187 -55 L -187 0 L -187 0 L -198 0 L -198 0 L -198 -55 Z M -187 0 L -132 0 L -132 0 L -132 11 L -132 11 L -187 11 L -187 11 L -187 0 Z M -132 11 L -121 11 L -121 11 L -121 66 L -121 66 L -132 66 L -132 66 L -132 11 Z M -253 -55 L -198 -55 L -198 -55 L -198 0 L -198 0 L -253 0 L -253 0 L -253 -55 Z M -187 11 L -132 11 L -132 11 L -132 66 L -132 66 L -187 66 L -187 66 L -187 11 Z M -253 0 L -198 0 L -198 0 L -198 11 L -198 11 L -253 11 L -253 11 L -253 0 Z M -253 11 L -198 11 L -198 11 L -198 66 L -198 66 L -253 66 L -253 66 L -253 11 Z M -253 66 L -198 66 L -198 66 L -198 77 L -198 77 L -253 77 L -253 77 L -253 66 Z M -253 77 L -198 77 L -198 77 L -198 132 L -198 132 L -253 132 L -253 132 L -253 77 Z" fill="#f16d30"/></g></g></svg>